ffprobe version N-86175-g64ea4d1 Copyright (c) 2007-2017 the FFmpeg developers
  built with gcc 6.3.0 (GCC)
  configuration: --enable-gpl --enable-version3 --enable-cuda --enable-cuvid --enable-d3d11va --enable-dxva2 --enable-libmfx --enable-nvenc --enable-avisynth --enable-bzlib --enable-fontconfig --enable-frei0r --enable-gnutls --enable-iconv --enable-libass --enable-libbluray --enable-libbs2b --enable-libcaca --enable-libfreetype --enable-libgme --enable-libgsm --enable-libilbc --enable-libmodplug --enable-libmp3lame --enable-libopencore-amrnb --enable-libopencore-amrwb --enable-libopenh264 --enable-libopenjpeg --enable-libopus --enable-librtmp --enable-libsnappy --enable-libsoxr --enable-libspeex --enable-libtheora --enable-libtwolame --enable-libvidstab --enable-libvo-amrwbenc --enable-libvorbis --enable-libvpx --enable-libwavpack --enable-libwebp --enable-libx264 --enable-libx265 --enable-libxavs --enable-libxvid --enable-libzimg --enable-lzma --enable-zlib
  libavutil      55. 63.100 / 55. 63.100
  libavcodec     57. 96.101 / 57. 96.101
  libavformat    57. 72.101 / 57. 72.101
  libavdevice    57.  7.100 / 57.  7.100
  libavfilter     6. 90.100 /  6. 90.100
  libswscale      4.  7.101 /  4.  7.101
  libswresample   2.  8.100 /  2.  8.100
  libpostproc    54.  6.100 / 54.  6.100
Input #0, matroska,webm, from '[HorribleSubs] One Piece - 806 [720p].mkv':
  Metadata:
    encoder         : no_variable_data
    creation_time   : 1970-01-01T00:00:00.000000Z
  Duration: 00:23:55.27, start: 0.000000, bitrate: 1903 kb/s
    Stream #0:0: Video: h264 (High), yuv420p(progressive), 1280x720 [SAR 1:1 DAR 16:9], 23.81 fps, 23.81 tbr, 1k tbn, 47.95 tbc (default)
    Metadata:
      BPS             : 1770990
      BPS-eng         : 1770990
      DURATION        : 00:23:55.102000000
      DURATION-eng    : 00:23:55.102000000
      NUMBER_OF_FRAMES: 34409
      NUMBER_OF_FRAMES-eng: 34409
      NUMBER_OF_BYTES : 317693913
      NUMBER_OF_BYTES-eng: 317693913
      _STATISTICS_WRITING_APP: no_variable_data
      _STATISTICS_WRITING_APP-eng: no_variable_data
      _STATISTICS_WRITING_DATE_UTC: 1970-01-01 00:00:00
      _STATISTICS_WRITING_DATE_UTC-eng: 1970-01-01 00:00:00
      _STATISTICS_TAGS: BPS DURATION NUMBER_OF_FRAMES NUMBER_OF_BYTES
      _STATISTICS_TAGS-eng: BPS DURATION NUMBER_OF_FRAMES NUMBER_OF_BYTES
    Stream #0:1(jpn): Audio: aac (LC), 44100 Hz, stereo, fltp (default)
    Metadata:
      BPS             : 127999
      BPS-eng         : 127999
      DURATION        : 00:23:55.272000000
      DURATION-eng    : 00:23:55.272000000
      NUMBER_OF_FRAMES: 61812
      NUMBER_OF_FRAMES-eng: 61812
      NUMBER_OF_BYTES : 22964349
      NUMBER_OF_BYTES-eng: 22964349
      _STATISTICS_WRITING_APP: no_variable_data
      _STATISTICS_WRITING_APP-eng: no_variable_data
      _STATISTICS_WRITING_DATE_UTC: 1970-01-01 00:00:00
      _STATISTICS_WRITING_DATE_UTC-eng: 1970-01-01 00:00:00
      _STATISTICS_TAGS: BPS DURATION NUMBER_OF_FRAMES NUMBER_OF_BYTES
      _STATISTICS_TAGS-eng: BPS DURATION NUMBER_OF_FRAMES NUMBER_OF_BYTES
    Stream #0:2(eng): Subtitle: ass (default)
    Metadata:
      BPS             : 98
      BPS-eng         : 98
      DURATION        : 00:23:36.580000000
      DURATION-eng    : 00:23:36.580000000
      NUMBER_OF_FRAMES: 275
      NUMBER_OF_FRAMES-eng: 275
      NUMBER_OF_BYTES : 17517
      NUMBER_OF_BYTES-eng: 17517
      _STATISTICS_WRITING_APP: no_variable_data
      _STATISTICS_WRITING_APP-eng: no_variable_data
      _STATISTICS_WRITING_DATE_UTC: 1970-01-01 00:00:00
      _STATISTICS_WRITING_DATE_UTC-eng: 1970-01-01 00:00:00
      _STATISTICS_TAGS: BPS DURATION NUMBER_OF_FRAMES NUMBER_OF_BYTES
      _STATISTICS_TAGS-eng: BPS DURATION NUMBER_OF_FRAMES NUMBER_OF_BYTES
    Stream #0:3: Attachment: ttf
    Metadata:
      filename        : OpenSans-Semibold.ttf
      mimetype        : application/x-truetype-font
Unsupported codec with id 98304 for input stream 3
